<svg xmlns="http://www.w3.org/2000/svg" xmlns:xlink="http://www.w3.org/1999/xlink" contentStyleType="text/css" data-diagram-type="CLASS" height="925px" preserveAspectRatio="none" style="width:761px;height:925px;background:#FFFFFF;" version="1.1" viewBox="0 0 761 925" width="761px" zoomAndPan="magnify"><defs/><g><!--class User--><g class="entity" data-entity="User" data-source-line="1" data-uid="ent0002" id="entity_User"><rect fill="#F1F1F1" height="145.7813" rx="2.5" ry="2.5" style="stroke:#181818;stroke-width:0.5;" width="188.7295" x="358.18" y="7"/><ellipse cx="432.3397" cy="23" fill="#ADD1B2" rx="11" ry="11" style="stroke:#181818;stroke-width:1;"/><path d="M436.449,29 L428.7303,29 L428.7303,16.6094 L436.449,16.6094 L436.449,18.7656 L431.1834,18.7656 L431.1834,21.4375 L435.949,21.4375 L435.949,23.5938 L431.1834,23.5938 L431.1834,26.8438 L436.449,26.8438 L436.449,29 Z " fill="#000000"/><text fill="#000000" font-family="sans-serif" font-size="14" lengthAdjust="spacing" textLength="31.9102" x="452.8397" y="27.8467">User</text><line style="stroke:#181818;stroke-width:0.5;" x1="359.18" x2="545.9095" y1="39" y2="39"/><g data-visibility-modifier="IE_MANDATORY"><ellipse cx="369.18" cy="52.6484" fill="#000000" rx="3" ry="3" style="stroke:#000000;stroke-width:1;"/></g><text fill="#000000" font-family="sans-serif" font-size="14" lengthAdjust="spacing" textLength="99.333" x="378.18" y="55.9951">user_id : UUID</text><line style="stroke:#181818;stroke-width:1;" x1="359.18" x2="545.9095" y1="63.2969" y2="63.2969"/><g data-visibility-modifier="IE_MANDATORY"><ellipse cx="369.18" cy="76.9453" fill="#000000" rx="3" ry="3" style="stroke:#000000;stroke-width:1;"/></g><text fill="#000000" font-family="sans-serif" font-size="14" lengthAdjust="spacing" textLength="94.0078" x="378.18" y="80.292">email : String</text><g data-visibility-modifier="IE_MANDATORY"><ellipse cx="369.18" cy="93.2422" fill="#000000" rx="3" ry="3" style="stroke:#000000;stroke-width:1;"/></g><text fill="#000000" font-family="sans-serif" font-size="14" lengthAdjust="spacing" textLength="162.7295" x="378.18" y="96.5889">password_hash : String</text><g data-visibility-modifier="IE_MANDATORY"><ellipse cx="369.18" cy="109.5391" fill="#000000" rx="3" ry="3" style="stroke:#000000;stroke-width:1;"/></g><text fill="#000000" font-family="sans-serif" font-size="14" lengthAdjust="spacing" textLength="95.1016" x="378.18" y="112.8857">name : String</text><g data-visibility-modifier="IE_MANDATORY"><ellipse cx="369.18" cy="125.8359" fill="#000000" rx="3" ry="3" style="stroke:#000000;stroke-width:1;"/></g><text fill="#000000" font-family="sans-serif" font-size="14" lengthAdjust="spacing" textLength="156.4746" x="378.18" y="129.1826">created_at : DateTime</text><g data-visibility-modifier="IE_MANDATORY"><ellipse cx="369.18" cy="142.1328" fill="#000000" rx="3" ry="3" style="stroke:#000000;stroke-width:1;"/></g><text fill="#000000" font-family="sans-serif" font-size="14" lengthAdjust="spacing" textLength="161.0547" x="378.18" y="145.4795">updated_at : DateTime</text></g><!--class Session--><g class="entity" data-entity="Session" data-source-line="11" data-uid="ent0003" id="entity_Session"><rect fill="#F1F1F1" height="145.7813" rx="2.5" ry="2.5" style="stroke:#181818;stroke-width:0.5;" width="193.0977" x="7" y="254.23"/><ellipse cx="72.5908" cy="270.23" fill="#ADD1B2" rx="11" ry="11" style="stroke:#181818;stroke-width:1;"/><path d="M76.7002,276.23 L68.9814,276.23 L68.9814,263.8394 L76.7002,263.8394 L76.7002,265.9956 L71.4346,265.9956 L71.4346,268.6675 L76.2002,268.6675 L76.2002,270.8238 L71.4346,270.8238 L71.4346,274.0738 L76.7002,274.0738 L76.7002,276.23 Z " fill="#000000"/><text fill="#000000" font-family="sans-serif" font-size="14" lengthAdjust="spacing" textLength="53.416" x="93.0908" y="275.0767">Session</text><line style="stroke:#181818;stroke-width:0.5;" x1="8" x2="199.0977" y1="286.23" y2="286.23"/><g data-visibility-modifier="IE_MANDATORY"><ellipse cx="18" cy="299.8784" fill="#000000" rx="3" ry="3" style="stroke:#000000;stroke-width:1;"/></g><text fill="#000000" font-family="sans-serif" font-size="14" lengthAdjust="spacing" textLength="120.6201" x="27" y="303.2251">session_id : UUID</text><line style="stroke:#181818;stroke-width:1;" x1="8" x2="199.0977" y1="310.5269" y2="310.5269"/><g data-visibility-modifier="IE_MANDATORY"><ellipse cx="18" cy="324.1753" fill="#000000" rx="3" ry="3" style="stroke:#000000;stroke-width:1;"/></g><text fill="#000000" font-family="sans-serif" font-size="14" lengthAdjust="spacing" textLength="99.333" x="27" y="327.522">user_id : UUID</text><g data-visibility-modifier="IE_MANDATORY"><ellipse cx="18" cy="340.4722" fill="#000000" rx="3" ry="3" style="stroke:#000000;stroke-width:1;"/></g><text fill="#000000" font-family="sans-serif" font-size="14" lengthAdjust="spacing" textLength="135.666" x="27" y="343.8189">token_hash : String</text><g data-visibility-modifier="IE_MANDATORY"><ellipse cx="18" cy="356.7691" fill="#000000" rx="3" ry="3" style="stroke:#000000;stroke-width:1;"/></g><text fill="#000000" font-family="sans-serif" font-size="14" lengthAdjust="spacing" textLength="156.4746" x="27" y="360.1157">created_at : DateTime</text><g data-visibility-modifier="IE_MANDATORY"><ellipse cx="18" cy="373.0659" fill="#000000" rx="3" ry="3" style="stroke:#000000;stroke-width:1;"/></g><text fill="#000000" font-family="sans-serif" font-size="14" lengthAdjust="spacing" textLength="161.6084" x="27" y="376.4126">expires_at : DateTime?</text><g data-visibility-modifier="IE_MANDATORY"><ellipse cx="18" cy="389.3628" fill="#000000" rx="3" ry="3" style="stroke:#000000;stroke-width:1;"/></g><text fill="#000000" font-family="sans-serif" font-size="14" lengthAdjust="spacing" textLength="167.0977" x="27" y="392.7095">revoked_at : DateTime?</text></g><!--class Location--><g class="entity" data-entity="Location" data-source-line="21" data-uid="ent0004" id="entity_Location"><rect fill="#F1F1F1" height="194.6719" rx="2.5" ry="2.5" style="stroke:#181818;stroke-width:0.5;" width="189.2627" x="234.92" y="229.78"/><ellipse cx="295.5719" cy="245.78" fill="#ADD1B2" rx="11" ry="11" style="stroke:#181818;stroke-width:1;"/><path d="M299.6812,251.78 L291.9625,251.78 L291.9625,239.3894 L299.6812,239.3894 L299.6812,241.5456 L294.4156,241.5456 L294.4156,244.2175 L299.1812,244.2175 L299.1812,246.3737 L294.4156,246.3737 L294.4156,249.6237 L299.6812,249.6237 L299.6812,251.78 Z " fill="#000000"/><text fill="#000000" font-family="sans-serif" font-size="14" lengthAdjust="spacing" textLength="59.459" x="316.0719" y="250.6267">Location</text><line style="stroke:#181818;stroke-width:0.5;" x1="235.92" x2="423.1827" y1="261.78" y2="261.78"/><g data-visibility-modifier="IE_MANDATORY"><ellipse cx="245.92" cy="275.4284" fill="#000000" rx="3" ry="3" style="stroke:#000000;stroke-width:1;"/></g><text fill="#000000" font-family="sans-serif" font-size="14" lengthAdjust="spacing" textLength="124.3457" x="254.92" y="278.7751">location_id : UUID</text><line style="stroke:#181818;stroke-width:1;" x1="235.92" x2="423.1827" y1="286.0769" y2="286.0769"/><g data-visibility-modifier="IE_MANDATORY"><ellipse cx="245.92" cy="299.7253" fill="#000000" rx="3" ry="3" style="stroke:#000000;stroke-width:1;"/></g><text fill="#000000" font-family="sans-serif" font-size="14" lengthAdjust="spacing" textLength="99.333" x="254.92" y="303.072">user_id : UUID</text><g data-visibility-modifier="IE_MANDATORY"><ellipse cx="245.92" cy="316.0222" fill="#000000" rx="3" ry="3" style="stroke:#000000;stroke-width:1;"/></g><text fill="#000000" font-family="sans-serif" font-size="14" lengthAdjust="spacing" textLength="95.1016" x="254.92" y="319.3689">name : String</text><g data-visibility-modifier="IE_MANDATORY"><ellipse cx="245.92" cy="332.3191" fill="#000000" rx="3" ry="3" style="stroke:#000000;stroke-width:1;"/></g><text fill="#000000" font-family="sans-serif" font-size="14" lengthAdjust="spacing" textLength="133.2393" x="254.92" y="335.6657">description : String</text><g data-visibility-modifier="IE_MANDATORY"><ellipse cx="245.92" cy="348.6159" fill="#000000" rx="3" ry="3" style="stroke:#000000;stroke-width:1;"/></g><text fill="#000000" font-family="sans-serif" font-size="14" lengthAdjust="spacing" textLength="136.6709" x="254.92" y="351.9626">longitude : Decimal</text><g data-visibility-modifier="IE_MANDATORY"><ellipse cx="245.92" cy="364.9128" fill="#000000" rx="3" ry="3" style="stroke:#000000;stroke-width:1;"/></g><text fill="#000000" font-family="sans-serif" font-size="14" lengthAdjust="spacing" textLength="124.4141" x="254.92" y="368.2595">latitude : Decimal</text><g data-visibility-modifier="IE_MANDATORY"><ellipse cx="245.92" cy="381.2097" fill="#000000" rx="3" ry="3" style="stroke:#000000;stroke-width:1;"/></g><text fill="#000000" font-family="sans-serif" font-size="14" lengthAdjust="spacing" textLength="156.4746" x="254.92" y="384.5564">created_at : DateTime</text><g data-visibility-modifier="IE_MANDATORY"><ellipse cx="245.92" cy="397.5066" fill="#000000" rx="3" ry="3" style="stroke:#000000;stroke-width:1;"/></g><text fill="#000000" font-family="sans-serif" font-size="14" lengthAdjust="spacing" textLength="161.0547" x="254.92" y="400.8532">updated_at : DateTime</text><g data-visibility-modifier="IE_MANDATORY"><ellipse cx="245.92" cy="413.8034" fill="#000000" rx="3" ry="3" style="stroke:#000000;stroke-width:1;"/></g><text fill="#000000" font-family="sans-serif" font-size="14" lengthAdjust="spacing" textLength="163.2627" x="254.92" y="417.1501">deleted_at : DateTime?</text></g><!--class Device--><g class="entity" data-entity="Device" data-source-line="34" data-uid="ent0005" id="entity_Device"><rect fill="#F1F1F1" height="194.6719" rx="2.5" ry="2.5" style="stroke:#181818;stroke-width:0.5;" width="189.2627" x="317.92" y="501.46"/><ellipse cx="384.3619" cy="517.46" fill="#ADD1B2" rx="11" ry="11" style="stroke:#181818;stroke-width:1;"/><path d="M388.4713,523.46 L380.7525,523.46 L380.7525,511.0694 L388.4713,511.0694 L388.4713,513.2256 L383.2056,513.2256 L383.2056,515.8975 L387.9713,515.8975 L387.9713,518.0538 L383.2056,518.0538 L383.2056,521.3038 L388.4713,521.3038 L388.4713,523.46 Z " fill="#000000"/><text fill="#000000" font-family="sans-serif" font-size="14" lengthAdjust="spacing" textLength="47.8789" x="404.8619" y="522.3067">Device</text><line style="stroke:#181818;stroke-width:0.5;" x1="318.92" x2="506.1827" y1="533.46" y2="533.46"/><g data-visibility-modifier="IE_MANDATORY"><ellipse cx="328.92" cy="547.1084" fill="#000000" rx="3" ry="3" style="stroke:#000000;stroke-width:1;"/></g><text fill="#000000" font-family="sans-serif" font-size="14" lengthAdjust="spacing" textLength="114.7822" x="337.92" y="550.4551">device_id : UUID</text><line style="stroke:#181818;stroke-width:1;" x1="318.92" x2="506.1827" y1="557.7569" y2="557.7569"/><g data-visibility-modifier="IE_MANDATORY"><ellipse cx="328.92" cy="571.4053" fill="#000000" rx="3" ry="3" style="stroke:#000000;stroke-width:1;"/></g><text fill="#000000" font-family="sans-serif" font-size="14" lengthAdjust="spacing" textLength="99.333" x="337.92" y="574.752">user_id : UUID</text><g data-visibility-modifier="IE_MANDATORY"><ellipse cx="328.92" cy="587.7022" fill="#000000" rx="3" ry="3" style="stroke:#000000;stroke-width:1;"/></g><text fill="#000000" font-family="sans-serif" font-size="14" lengthAdjust="spacing" textLength="124.3457" x="337.92" y="591.0489">location_id : UUID</text><g data-visibility-modifier="IE_MANDATORY"><ellipse cx="328.92" cy="603.9991" fill="#000000" rx="3" ry="3" style="stroke:#000000;stroke-width:1;"/></g><text fill="#000000" font-family="sans-serif" font-size="14" lengthAdjust="spacing" textLength="133.4238" x="337.92" y="607.3457">device_type: enum</text><g data-visibility-modifier="IE_MANDATORY"><ellipse cx="328.92" cy="620.2959" fill="#000000" rx="3" ry="3" style="stroke:#000000;stroke-width:1;"/></g><text fill="#000000" font-family="sans-serif" font-size="14" lengthAdjust="spacing" textLength="95.1016" x="337.92" y="623.6426">name : String</text><g data-visibility-modifier="IE_MANDATORY"><ellipse cx="328.92" cy="636.5928" fill="#000000" rx="3" ry="3" style="stroke:#000000;stroke-width:1;"/></g><text fill="#000000" font-family="sans-serif" font-size="14" lengthAdjust="spacing" textLength="133.2393" x="337.92" y="639.9395">description : String</text><g data-visibility-modifier="IE_MANDATORY"><ellipse cx="328.92" cy="652.8897" fill="#000000" rx="3" ry="3" style="stroke:#000000;stroke-width:1;"/></g><text fill="#000000" font-family="sans-serif" font-size="14" lengthAdjust="spacing" textLength="156.4746" x="337.92" y="656.2364">created_at : DateTime</text><g data-visibility-modifier="IE_MANDATORY"><ellipse cx="328.92" cy="669.1866" fill="#000000" rx="3" ry="3" style="stroke:#000000;stroke-width:1;"/></g><text fill="#000000" font-family="sans-serif" font-size="14" lengthAdjust="spacing" textLength="161.0547" x="337.92" y="672.5332">updated_at : DateTime</text><g data-visibility-modifier="IE_MANDATORY"><ellipse cx="328.92" cy="685.4834" fill="#000000" rx="3" ry="3" style="stroke:#000000;stroke-width:1;"/></g><text fill="#000000" font-family="sans-serif" font-size="14" lengthAdjust="spacing" textLength="163.2627" x="337.92" y="688.8301">deleted_at : DateTime?</text></g><!--class DeviceConfiguration--><g class="entity" data-entity="DeviceConfiguration" data-source-line="47" data-uid="ent0006" id="entity_DeviceConfiguration"><rect fill="#F1F1F1" height="145.7813" rx="2.5" ry="2.5" style="stroke:#181818;stroke-width:0.5;" width="189.2627" x="317.92" y="773.13"/><ellipse cx="339.4178" cy="789.13" fill="#ADD1B2" rx="11" ry="11" style="stroke:#181818;stroke-width:1;"/><path d="M343.5271,795.13 L335.8084,795.13 L335.8084,782.7394 L343.5271,782.7394 L343.5271,784.8956 L338.2615,784.8956 L338.2615,787.5675 L343.0271,787.5675 L343.0271,789.7238 L338.2615,789.7238 L338.2615,792.9738 L343.5271,792.9738 L343.5271,795.13 Z " fill="#000000"/><text fill="#000000" font-family="sans-serif" font-size="14" lengthAdjust="spacing" textLength="142.8232" x="354.8617" y="793.9767">DeviceConfiguration</text><line style="stroke:#181818;stroke-width:0.5;" x1="318.92" x2="506.1827" y1="805.13" y2="805.13"/><g data-visibility-modifier="IE_MANDATORY"><ellipse cx="328.92" cy="818.7784" fill="#000000" rx="3" ry="3" style="stroke:#000000;stroke-width:1;"/></g><text fill="#000000" font-family="sans-serif" font-size="14" lengthAdjust="spacing" textLength="111.6377" x="337.92" y="822.1251">config_id : UUID</text><line style="stroke:#181818;stroke-width:1;" x1="318.92" x2="506.1827" y1="829.4269" y2="829.4269"/><g data-visibility-modifier="IE_MANDATORY"><ellipse cx="328.92" cy="843.0753" fill="#000000" rx="3" ry="3" style="stroke:#000000;stroke-width:1;"/></g><text fill="#000000" font-family="sans-serif" font-size="14" lengthAdjust="spacing" textLength="114.7822" x="337.92" y="846.422">device_id : UUID</text><g data-visibility-modifier="IE_MANDATORY"><ellipse cx="328.92" cy="859.3722" fill="#000000" rx="3" ry="3" style="stroke:#000000;stroke-width:1;"/></g><text fill="#000000" font-family="sans-serif" font-size="14" lengthAdjust="spacing" textLength="79.6592" x="337.92" y="862.7189">data : JSON</text><g data-visibility-modifier="IE_MANDATORY"><ellipse cx="328.92" cy="875.6691" fill="#000000" rx="3" ry="3" style="stroke:#000000;stroke-width:1;"/></g><text fill="#000000" font-family="sans-serif" font-size="14" lengthAdjust="spacing" textLength="156.4746" x="337.92" y="879.0157">created_at : DateTime</text><g data-visibility-modifier="IE_MANDATORY"><ellipse cx="328.92" cy="891.9659" fill="#000000" rx="3" ry="3" style="stroke:#000000;stroke-width:1;"/></g><text fill="#000000" font-family="sans-serif" font-size="14" lengthAdjust="spacing" textLength="161.0547" x="337.92" y="895.3126">updated_at : DateTime</text><g data-visibility-modifier="IE_MANDATORY"><ellipse cx="328.92" cy="908.2628" fill="#000000" rx="3" ry="3" style="stroke:#000000;stroke-width:1;"/></g><text fill="#000000" font-family="sans-serif" font-size="14" lengthAdjust="spacing" textLength="163.2627" x="337.92" y="911.6095">deleted_at : DateTime?</text></g><!--class Scenario--><g class="entity" data-entity="Scenario" data-source-line="57" data-uid="ent0007" id="entity_Scenario"><rect fill="#F1F1F1" height="178.375" rx="2.5" ry="2.5" style="stroke:#181818;stroke-width:0.5;" width="189.2627" x="564.92" y="237.93"/><ellipse cx="624.8712" cy="253.93" fill="#ADD1B2" rx="11" ry="11" style="stroke:#181818;stroke-width:1;"/><path d="M628.9805,259.93 L621.2618,259.93 L621.2618,247.5394 L628.9805,247.5394 L628.9805,249.6956 L623.7149,249.6956 L623.7149,252.3675 L628.4805,252.3675 L628.4805,254.5237 L623.7149,254.5237 L623.7149,257.7737 L628.9805,257.7737 L628.9805,259.93 Z " fill="#000000"/><text fill="#000000" font-family="sans-serif" font-size="14" lengthAdjust="spacing" textLength="60.8604" x="645.3712" y="258.7767">Scenario</text><line style="stroke:#181818;stroke-width:0.5;" x1="565.92" x2="753.1827" y1="269.93" y2="269.93"/><g data-visibility-modifier="IE_MANDATORY"><ellipse cx="575.92" cy="283.5784" fill="#000000" rx="3" ry="3" style="stroke:#000000;stroke-width:1;"/></g><text fill="#000000" font-family="sans-serif" font-size="14" lengthAdjust="spacing" textLength="128.0645" x="584.92" y="286.9251">scenario_id : UUID</text><line style="stroke:#181818;stroke-width:1;" x1="565.92" x2="753.1827" y1="294.2269" y2="294.2269"/><g data-visibility-modifier="IE_MANDATORY"><ellipse cx="575.92" cy="307.8753" fill="#000000" rx="3" ry="3" style="stroke:#000000;stroke-width:1;"/></g><text fill="#000000" font-family="sans-serif" font-size="14" lengthAdjust="spacing" textLength="99.333" x="584.92" y="311.222">user_id : UUID</text><g data-visibility-modifier="IE_MANDATORY"><ellipse cx="575.92" cy="324.1722" fill="#000000" rx="3" ry="3" style="stroke:#000000;stroke-width:1;"/></g><text fill="#000000" font-family="sans-serif" font-size="14" lengthAdjust="spacing" textLength="95.1016" x="584.92" y="327.5189">name : String</text><g data-visibility-modifier="IE_MANDATORY"><ellipse cx="575.92" cy="340.4691" fill="#000000" rx="3" ry="3" style="stroke:#000000;stroke-width:1;"/></g><text fill="#000000" font-family="sans-serif" font-size="14" lengthAdjust="spacing" textLength="133.2393" x="584.92" y="343.8157">description : String</text><g data-visibility-modifier="IE_MANDATORY"><ellipse cx="575.92" cy="356.7659" fill="#000000" rx="3" ry="3" style="stroke:#000000;stroke-width:1;"/></g><text fill="#000000" font-family="sans-serif" font-size="14" lengthAdjust="spacing" textLength="79.6592" x="584.92" y="360.1126">data : JSON</text><g data-visibility-modifier="IE_MANDATORY"><ellipse cx="575.92" cy="373.0628" fill="#000000" rx="3" ry="3" style="stroke:#000000;stroke-width:1;"/></g><text fill="#000000" font-family="sans-serif" font-size="14" lengthAdjust="spacing" textLength="156.4746" x="584.92" y="376.4095">created_at : DateTime</text><g data-visibility-modifier="IE_MANDATORY"><ellipse cx="575.92" cy="389.3597" fill="#000000" rx="3" ry="3" style="stroke:#000000;stroke-width:1;"/></g><text fill="#000000" font-family="sans-serif" font-size="14" lengthAdjust="spacing" textLength="161.0547" x="584.92" y="392.7064">updated_at : DateTime</text><g data-visibility-modifier="IE_MANDATORY"><ellipse cx="575.92" cy="405.6566" fill="#000000" rx="3" ry="3" style="stroke:#000000;stroke-width:1;"/></g><text fill="#000000" font-family="sans-serif" font-size="14" lengthAdjust="spacing" textLength="163.2627" x="584.92" y="409.0032">deleted_at : DateTime?</text></g><!--link User to Session--><g class="link" data-entity-1="User" data-entity-2="Session" data-source-line="69" data-uid="lnk8" id="link_User_Session"><path codeLine="69" d="M351.1423,140.9155 C307.4723,167.7255 262.32,196.92 217.55,229.78 C207.31,237.3 210.825,234.1525 200.545,242.4525" fill="none" id="User-Session" style="stroke:#181818;stroke-width:1;"/><line style="stroke:#181818;stroke-width:1;" x1="352.4584" x2="356.6439" y1="135.4139" y2="142.2316"/><line style="stroke:#181818;stroke-width:1;" x1="349.9017" x2="354.0873" y1="136.9835" y2="143.8012"/><line style="stroke:#181818;stroke-width:1;" x1="351.1423" x2="357.96" y1="140.9155" y2="136.73"/><line style="stroke:#181818;stroke-width:1;" x1="192.7644" x2="190.3092" y1="248.7344" y2="258.4283"/><line style="stroke:#181818;stroke-width:1;" x1="192.7644" x2="182.7708" y1="248.7344" y2="249.0917"/><line style="stroke:#181818;stroke-width:1;" x1="192.7644" x2="186.54" y1="248.7344" y2="253.76"/><ellipse cx="197.4328" cy="244.9653" fill="none" rx="4" ry="4" style="stroke:#181818;stroke-width:1;"/><text fill="#000000" font-family="sans-serif" font-size="13" lengthAdjust="spacing" textLength="22.9785" x="281.55" y="195.8469">has</text></g><!--link User to Location--><g class="link" data-entity-1="User" data-entity-2="Location" data-source-line="70" data-uid="lnk9" id="link_User_Location"><path codeLine="70" d="M412.7227,160.2906 C400.7427,184.1706 398.8776,187.8892 386.1376,213.2992" fill="none" id="User-Location" style="stroke:#181818;stroke-width:1;"/><line style="stroke:#181818;stroke-width:1;" x1="410.941" x2="418.0917" y1="154.9217" y2="158.509"/><line style="stroke:#181818;stroke-width:1;" x1="409.5958" x2="416.7464" y1="157.6031" y2="161.1904"/><line style="stroke:#181818;stroke-width:1;" x1="412.7227" x2="416.31" y1="160.2906" y2="153.14"/><line style="stroke:#181818;stroke-width:1;" x1="381.6556" x2="383.4336" y1="222.2385" y2="232.0792"/><line style="stroke:#181818;stroke-width:1;" x1="381.6556" x2="372.7064" y1="222.2385" y2="226.7008"/><line style="stroke:#181818;stroke-width:1;" x1="381.6556" x2="378.07" y1="222.2385" y2="229.39"/><ellipse cx="384.3448" cy="216.8749" fill="none" rx="4" ry="4" style="stroke:#181818;stroke-width:1;"/><text fill="#000000" font-family="sans-serif" font-size="13" lengthAdjust="spacing" textLength="33.5981" x="399.55" y="195.8469">owns</text></g><!--link User to Device--><g class="link" data-entity-1="User" data-entity-2="Device" data-source-line="71" data-uid="lnk10" id="link_User_Device"><path codeLine="71" d="M454.2383,161.2296 C455.0083,239.8996 453.34,361.17 438.55,471.46 C437.25,481.11 438.8075,473.4091 437.0275,483.3991" fill="none" id="User-Device" style="stroke:#181818;stroke-width:1;"/><line style="stroke:#181818;stroke-width:1;" x1="450.1993" x2="458.199" y1="157.269" y2="157.1907"/><line style="stroke:#181818;stroke-width:1;" x1="450.2287" x2="458.2283" y1="160.2688" y2="160.1905"/><line style="stroke:#181818;stroke-width:1;" x1="454.2383" x2="454.16" y1="161.2296" y2="153.23"/><line style="stroke:#181818;stroke-width:1;" x1="435.2733" x2="439.777" y1="493.244" y2="502.1725"/><line style="stroke:#181818;stroke-width:1;" x1="435.2733" x2="427.963" y1="493.244" y2="500.0675"/><line style="stroke:#181818;stroke-width:1;" x1="435.2733" x2="433.87" y1="493.244" y2="501.12"/><ellipse cx="436.3258" cy="487.3371" fill="none" rx="4" ry="4" style="stroke:#181818;stroke-width:1;"/><text fill="#000000" font-family="sans-serif" font-size="13" lengthAdjust="spacing" textLength="33.5981" x="455.55" y="331.6869">owns</text></g><!--link User to Scenario--><g class="link" data-entity-1="User" data-entity-2="Scenario" data-source-line="72" data-uid="lnk11" id="link_User_Scenario"><path codeLine="72" d="M518.7001,159.2534 C541.0001,185.6734 549.7204,196.0044 573.0904,223.6944" fill="none" id="User-Scenario" style="stroke:#181818;stroke-width:1;"/><line style="stroke:#181818;stroke-width:1;" x1="513.0633" x2="519.1767" y1="158.7767" y2="153.6167"/><line style="stroke:#181818;stroke-width:1;" x1="514.9984" x2="521.1118" y1="161.0693" y2="155.9092"/><line style="stroke:#181818;stroke-width:1;" x1="518.7001" x2="513.54" y1="159.2534" y2="153.14"/><line style="stroke:#181818;stroke-width:1;" x1="579.5402" x2="589.2852" y1="231.3364" y2="233.5801"/><line style="stroke:#181818;stroke-width:1;" x1="579.5402" x2="580.1148" y1="231.3364" y2="241.3199"/><line style="stroke:#181818;stroke-width:1;" x1="579.5402" x2="584.7" y1="231.3364" y2="237.45"/><ellipse cx="575.6703" cy="226.7512" fill="none" rx="4" ry="4" style="stroke:#181818;stroke-width:1;"/><text fill="#000000" font-family="sans-serif" font-size="13" lengthAdjust="spacing" textLength="33.5981" x="551.55" y="195.8469">owns</text></g><!--link Location to Device--><g class="link" data-entity-1="Location" data-entity-2="Device" data-source-line="74" data-uid="lnk12" id="link_Location_Device"><path codeLine="74" d="M361.6342,432.3658 C369.2642,457.1458 369.8087,458.9684 377.4487,483.7584" fill="none" id="Location-Device" style="stroke:#181818;stroke-width:1;"/><line style="stroke:#181818;stroke-width:1;" x1="356.6342" x2="364.28" y1="429.72" y2="427.3658"/><line style="stroke:#181818;stroke-width:1;" x1="357.517" x2="365.1628" y1="432.5871" y2="430.2329"/><line style="stroke:#181818;stroke-width:1;" x1="361.6342" x2="359.28" y1="432.3658" y2="424.72"/><line style="stroke:#181818;stroke-width:1;" x1="380.3938" x2="388.4839" y1="493.3148" y2="499.1929"/><line style="stroke:#181818;stroke-width:1;" x1="380.3938" x2="377.0161" y1="493.3148" y2="502.7271"/><line style="stroke:#181818;stroke-width:1;" x1="380.3938" x2="382.75" y1="493.3148" y2="500.96"/><ellipse cx="378.6267" cy="487.581" fill="none" rx="4" ry="4" style="stroke:#181818;stroke-width:1;"/><text fill="#000000" font-family="sans-serif" font-size="13" lengthAdjust="spacing" textLength="55.0278" x="374.55" y="467.5269">contains</text></g><!--link Device to DeviceConfiguration--><g class="link" data-entity-1="Device" data-entity-2="DeviceConfiguration" data-source-line="75" data-uid="lnk13" id="link_Device_DeviceConfiguration"><path codeLine="75" d="M412.55,704.36 C412.55,729.83 412.55,740.86 412.55,764.8" fill="none" id="Device-DeviceConfiguration" style="stroke:#181818;stroke-width:1;"/><line style="stroke:#181818;stroke-width:1;" x1="408.55" x2="416.55" y1="700.36" y2="700.36"/><line style="stroke:#181818;stroke-width:1;" x1="408.55" x2="416.55" y1="703.36" y2="703.36"/><line style="stroke:#181818;stroke-width:1;" x1="412.55" x2="412.55" y1="704.36" y2="696.36"/><line style="stroke:#181818;stroke-width:1;" x1="416.55" x2="408.55" y1="768.8" y2="768.8"/><line style="stroke:#181818;stroke-width:1;" x1="416.55" x2="408.55" y1="765.8" y2="765.8"/><line style="stroke:#181818;stroke-width:1;" x1="412.55" x2="412.55" y1="764.8" y2="772.8"/><text fill="#000000" font-family="sans-serif" font-size="13" lengthAdjust="spacing" textLength="22.9785" x="413.55" y="739.1969">has</text></g><!--SRC=[lLInRiCW4Dtz5SXZ9Fz0bWxrqgfg1oTpT3BNv5GRBC19exZ_Nem9hMCS9KExtRq7ntjt00f3viZIjKQLCj2i3zWfOMp1MXjkYBCbMw-VSWjbcSEn1geiMXX5OkkW1hG-ICKtEz2xCIMWnZ5IAWI3V0F6uhaDLrJZS6B38ynNag2NMQ3M98LJwcClLWzPJE_4nu8P-O4Y8dPU6dusf52FcGT7ATpRSloI-YNxHPPWphhFYHTU-VH6vTDsSjIbeiQL716L55ioBU_NvrXI3TM0s_CYyBrZ6Swkq5ordkEUIdJ6Xz3RvYwvqNIqHw66EJQuP2ZQ-juE_QNbHodUQTkgdy57SDSCfyIX8t- -8JFDSZ0OiCXpyVPwBZDZw9gbsqmL9GfG98UdvvCWNtjWpi1afh51NHdLVxbrlr_NPPayXVzboLBxKQGZBhnXIyg3k63zHOzoeNM1JKAnoNPxAmnGlyXZ_OgkYzuaB_CR]--></g></svg>