<svg xmlns="http://www.w3.org/2000/svg" xmlns:xlink="http://www.w3.org/1999/xlink" contentStyleType="text/css" data-diagram-type="CLASS" height="1103px" preserveAspectRatio="none" style="width:762px;height:1103px;background:#FFFFFF;" version="1.1" viewBox="0 0 762 1103" width="762px" zoomAndPan="magnify"><defs/><g><!--class User--><g class="entity" data-entity="User" data-source-line="1" data-uid="ent0002" id="entity_User"><rect fill="#F1F1F1" height="145.7813" rx="2.5" ry="2.5" style="stroke:#181818;stroke-width:0.5;" width="188.7295" x="159.18" y="7"/><ellipse cx="233.3397" cy="23" fill="#ADD1B2" rx="11" ry="11" style="stroke:#181818;stroke-width:1;"/><path d="M237.449,29 L229.7303,29 L229.7303,16.6094 L237.449,16.6094 L237.449,18.7656 L232.1834,18.7656 L232.1834,21.4375 L236.949,21.4375 L236.949,23.5938 L232.1834,23.5938 L232.1834,26.8438 L237.449,26.8438 L237.449,29 Z " fill="#000000"/><text fill="#000000" font-family="sans-serif" font-size="14" lengthAdjust="spacing" textLength="31.9102" x="253.8397" y="27.8467">User</text><line style="stroke:#181818;stroke-width:0.5;" x1="160.18" x2="346.9095" y1="39" y2="39"/><g data-visibility-modifier="IE_MANDATORY"><ellipse cx="170.18" cy="52.6484" fill="#000000" rx="3" ry="3" style="stroke:#000000;stroke-width:1;"/></g><text fill="#000000" font-family="sans-serif" font-size="14" lengthAdjust="spacing" textLength="99.333" x="179.18" y="55.9951">user_id : UUID</text><line style="stroke:#181818;stroke-width:1;" x1="160.18" x2="346.9095" y1="63.2969" y2="63.2969"/><g data-visibility-modifier="IE_MANDATORY"><ellipse cx="170.18" cy="76.9453" fill="#000000" rx="3" ry="3" style="stroke:#000000;stroke-width:1;"/></g><text fill="#000000" font-family="sans-serif" font-size="14" lengthAdjust="spacing" textLength="94.0078" x="179.18" y="80.292">email : String</text><g data-visibility-modifier="IE_MANDATORY"><ellipse cx="170.18" cy="93.2422" fill="#000000" rx="3" ry="3" style="stroke:#000000;stroke-width:1;"/></g><text fill="#000000" font-family="sans-serif" font-size="14" lengthAdjust="spacing" textLength="162.7295" x="179.18" y="96.5889">password_hash : String</text><g data-visibility-modifier="IE_MANDATORY"><ellipse cx="170.18" cy="109.5391" fill="#000000" rx="3" ry="3" style="stroke:#000000;stroke-width:1;"/></g><text fill="#000000" font-family="sans-serif" font-size="14" lengthAdjust="spacing" textLength="95.1016" x="179.18" y="112.8857">name : String</text><g data-visibility-modifier="IE_MANDATORY"><ellipse cx="170.18" cy="125.8359" fill="#000000" rx="3" ry="3" style="stroke:#000000;stroke-width:1;"/></g><text fill="#000000" font-family="sans-serif" font-size="14" lengthAdjust="spacing" textLength="156.4746" x="179.18" y="129.1826">created_at : DateTime</text><g data-visibility-modifier="IE_MANDATORY"><ellipse cx="170.18" cy="142.1328" fill="#000000" rx="3" ry="3" style="stroke:#000000;stroke-width:1;"/></g><text fill="#000000" font-family="sans-serif" font-size="14" lengthAdjust="spacing" textLength="161.0547" x="179.18" y="145.4795">updated_at : DateTime</text></g><!--class Session--><g class="entity" data-entity="Session" data-source-line="11" data-uid="ent0003" id="entity_Session"><rect fill="#F1F1F1" height="145.7813" rx="2.5" ry="2.5" style="stroke:#181818;stroke-width:0.5;" width="193.0977" x="7" y="254.23"/><ellipse cx="72.5908" cy="270.23" fill="#ADD1B2" rx="11" ry="11" style="stroke:#181818;stroke-width:1;"/><path d="M76.7002,276.23 L68.9814,276.23 L68.9814,263.8394 L76.7002,263.8394 L76.7002,265.9956 L71.4346,265.9956 L71.4346,268.6675 L76.2002,268.6675 L76.2002,270.8237 L71.4346,270.8237 L71.4346,274.0737 L76.7002,274.0737 L76.7002,276.23 Z " fill="#000000"/><text fill="#000000" font-family="sans-serif" font-size="14" lengthAdjust="spacing" textLength="53.416" x="93.0908" y="275.0767">Session</text><line style="stroke:#181818;stroke-width:0.5;" x1="8" x2="199.0977" y1="286.23" y2="286.23"/><g data-visibility-modifier="IE_MANDATORY"><ellipse cx="18" cy="299.8784" fill="#000000" rx="3" ry="3" style="stroke:#000000;stroke-width:1;"/></g><text fill="#000000" font-family="sans-serif" font-size="14" lengthAdjust="spacing" textLength="120.6201" x="27" y="303.2251">session_id : UUID</text><line style="stroke:#181818;stroke-width:1;" x1="8" x2="199.0977" y1="310.5269" y2="310.5269"/><g data-visibility-modifier="IE_MANDATORY"><ellipse cx="18" cy="324.1753" fill="#000000" rx="3" ry="3" style="stroke:#000000;stroke-width:1;"/></g><text fill="#000000" font-family="sans-serif" font-size="14" lengthAdjust="spacing" textLength="99.333" x="27" y="327.522">user_id : UUID</text><g data-visibility-modifier="IE_MANDATORY"><ellipse cx="18" cy="340.4722" fill="#000000" rx="3" ry="3" style="stroke:#000000;stroke-width:1;"/></g><text fill="#000000" font-family="sans-serif" font-size="14" lengthAdjust="spacing" textLength="135.666" x="27" y="343.8189">token_hash : String</text><g data-visibility-modifier="IE_MANDATORY"><ellipse cx="18" cy="356.7691" fill="#000000" rx="3" ry="3" style="stroke:#000000;stroke-width:1;"/></g><text fill="#000000" font-family="sans-serif" font-size="14" lengthAdjust="spacing" textLength="156.4746" x="27" y="360.1157">created_at : DateTime</text><g data-visibility-modifier="IE_MANDATORY"><ellipse cx="18" cy="373.0659" fill="#000000" rx="3" ry="3" style="stroke:#000000;stroke-width:1;"/></g><text fill="#000000" font-family="sans-serif" font-size="14" lengthAdjust="spacing" textLength="161.6084" x="27" y="376.4126">expires_at : DateTime?</text><g data-visibility-modifier="IE_MANDATORY"><ellipse cx="18" cy="389.3628" fill="#000000" rx="3" ry="3" style="stroke:#000000;stroke-width:1;"/></g><text fill="#000000" font-family="sans-serif" font-size="14" lengthAdjust="spacing" textLength="167.0977" x="27" y="392.7095">revoked_at : DateTime?</text></g><!--class Location--><g class="entity" data-entity="Location" data-source-line="21" data-uid="ent0004" id="entity_Location"><rect fill="#F1F1F1" height="194.6719" rx="2.5" ry="2.5" style="stroke:#181818;stroke-width:0.5;" width="189.2627" x="325.92" y="229.78"/><ellipse cx="386.5719" cy="245.78" fill="#ADD1B2" rx="11" ry="11" style="stroke:#181818;stroke-width:1;"/><path d="M390.6812,251.78 L382.9625,251.78 L382.9625,239.3894 L390.6812,239.3894 L390.6812,241.5456 L385.4156,241.5456 L385.4156,244.2175 L390.1812,244.2175 L390.1812,246.3737 L385.4156,246.3737 L385.4156,249.6237 L390.6812,249.6237 L390.6812,251.78 Z " fill="#000000"/><text fill="#000000" font-family="sans-serif" font-size="14" lengthAdjust="spacing" textLength="59.459" x="407.0719" y="250.6267">Location</text><line style="stroke:#181818;stroke-width:0.5;" x1="326.92" x2="514.1827" y1="261.78" y2="261.78"/><g data-visibility-modifier="IE_MANDATORY"><ellipse cx="336.92" cy="275.4284" fill="#000000" rx="3" ry="3" style="stroke:#000000;stroke-width:1;"/></g><text fill="#000000" font-family="sans-serif" font-size="14" lengthAdjust="spacing" textLength="124.3457" x="345.92" y="278.7751">location_id : UUID</text><line style="stroke:#181818;stroke-width:1;" x1="326.92" x2="514.1827" y1="286.0769" y2="286.0769"/><g data-visibility-modifier="IE_MANDATORY"><ellipse cx="336.92" cy="299.7253" fill="#000000" rx="3" ry="3" style="stroke:#000000;stroke-width:1;"/></g><text fill="#000000" font-family="sans-serif" font-size="14" lengthAdjust="spacing" textLength="99.333" x="345.92" y="303.072">user_id : UUID</text><g data-visibility-modifier="IE_MANDATORY"><ellipse cx="336.92" cy="316.0222" fill="#000000" rx="3" ry="3" style="stroke:#000000;stroke-width:1;"/></g><text fill="#000000" font-family="sans-serif" font-size="14" lengthAdjust="spacing" textLength="95.1016" x="345.92" y="319.3689">name : String</text><g data-visibility-modifier="IE_MANDATORY"><ellipse cx="336.92" cy="332.3191" fill="#000000" rx="3" ry="3" style="stroke:#000000;stroke-width:1;"/></g><text fill="#000000" font-family="sans-serif" font-size="14" lengthAdjust="spacing" textLength="133.2393" x="345.92" y="335.6657">description : String</text><g data-visibility-modifier="IE_MANDATORY"><ellipse cx="336.92" cy="348.6159" fill="#000000" rx="3" ry="3" style="stroke:#000000;stroke-width:1;"/></g><text fill="#000000" font-family="sans-serif" font-size="14" lengthAdjust="spacing" textLength="136.6709" x="345.92" y="351.9626">longitude : Decimal</text><g data-visibility-modifier="IE_MANDATORY"><ellipse cx="336.92" cy="364.9128" fill="#000000" rx="3" ry="3" style="stroke:#000000;stroke-width:1;"/></g><text fill="#000000" font-family="sans-serif" font-size="14" lengthAdjust="spacing" textLength="124.4141" x="345.92" y="368.2595">latitude : Decimal</text><g data-visibility-modifier="IE_MANDATORY"><ellipse cx="336.92" cy="381.2097" fill="#000000" rx="3" ry="3" style="stroke:#000000;stroke-width:1;"/></g><text fill="#000000" font-family="sans-serif" font-size="14" lengthAdjust="spacing" textLength="156.4746" x="345.92" y="384.5564">created_at : DateTime</text><g data-visibility-modifier="IE_MANDATORY"><ellipse cx="336.92" cy="397.5066" fill="#000000" rx="3" ry="3" style="stroke:#000000;stroke-width:1;"/></g><text fill="#000000" font-family="sans-serif" font-size="14" lengthAdjust="spacing" textLength="161.0547" x="345.92" y="400.8532">updated_at : DateTime</text><g data-visibility-modifier="IE_MANDATORY"><ellipse cx="336.92" cy="413.8034" fill="#000000" rx="3" ry="3" style="stroke:#000000;stroke-width:1;"/></g><text fill="#000000" font-family="sans-serif" font-size="14" lengthAdjust="spacing" textLength="163.2627" x="345.92" y="417.1501">deleted_at : DateTime?</text></g><!--class Device--><g class="entity" data-entity="Device" data-source-line="34" data-uid="ent0005" id="entity_Device"><rect fill="#F1F1F1" height="178.375" rx="2.5" ry="2.5" style="stroke:#181818;stroke-width:0.5;" width="189.2627" x="340.92" y="662.83"/><ellipse cx="407.3619" cy="678.83" fill="#ADD1B2" rx="11" ry="11" style="stroke:#181818;stroke-width:1;"/><path d="M411.4713,684.83 L403.7525,684.83 L403.7525,672.4394 L411.4713,672.4394 L411.4713,674.5956 L406.2056,674.5956 L406.2056,677.2675 L410.9713,677.2675 L410.9713,679.4237 L406.2056,679.4237 L406.2056,682.6737 L411.4713,682.6737 L411.4713,684.83 Z " fill="#000000"/><text fill="#000000" font-family="sans-serif" font-size="14" lengthAdjust="spacing" textLength="47.8789" x="427.8619" y="683.6767">Device</text><line style="stroke:#181818;stroke-width:0.5;" x1="341.92" x2="529.1827" y1="694.83" y2="694.83"/><g data-visibility-modifier="IE_MANDATORY"><ellipse cx="351.92" cy="708.4784" fill="#000000" rx="3" ry="3" style="stroke:#000000;stroke-width:1;"/></g><text fill="#000000" font-family="sans-serif" font-size="14" lengthAdjust="spacing" textLength="114.7822" x="360.92" y="711.8251">device_id : UUID</text><line style="stroke:#181818;stroke-width:1;" x1="341.92" x2="529.1827" y1="719.1269" y2="719.1269"/><g data-visibility-modifier="IE_MANDATORY"><ellipse cx="351.92" cy="732.7753" fill="#000000" rx="3" ry="3" style="stroke:#000000;stroke-width:1;"/></g><text fill="#000000" font-family="sans-serif" font-size="14" lengthAdjust="spacing" textLength="124.3457" x="360.92" y="736.122">location_id : UUID</text><g data-visibility-modifier="IE_MANDATORY"><ellipse cx="351.92" cy="749.0722" fill="#000000" rx="3" ry="3" style="stroke:#000000;stroke-width:1;"/></g><text fill="#000000" font-family="sans-serif" font-size="14" lengthAdjust="spacing" textLength="137.874" x="360.92" y="752.4189">device_type : enum</text><g data-visibility-modifier="IE_MANDATORY"><ellipse cx="351.92" cy="765.3691" fill="#000000" rx="3" ry="3" style="stroke:#000000;stroke-width:1;"/></g><text fill="#000000" font-family="sans-serif" font-size="14" lengthAdjust="spacing" textLength="95.1016" x="360.92" y="768.7157">name : String</text><g data-visibility-modifier="IE_MANDATORY"><ellipse cx="351.92" cy="781.6659" fill="#000000" rx="3" ry="3" style="stroke:#000000;stroke-width:1;"/></g><text fill="#000000" font-family="sans-serif" font-size="14" lengthAdjust="spacing" textLength="133.2393" x="360.92" y="785.0126">description : String</text><g data-visibility-modifier="IE_MANDATORY"><ellipse cx="351.92" cy="797.9628" fill="#000000" rx="3" ry="3" style="stroke:#000000;stroke-width:1;"/></g><text fill="#000000" font-family="sans-serif" font-size="14" lengthAdjust="spacing" textLength="156.4746" x="360.92" y="801.3095">created_at : DateTime</text><g data-visibility-modifier="IE_MANDATORY"><ellipse cx="351.92" cy="814.2597" fill="#000000" rx="3" ry="3" style="stroke:#000000;stroke-width:1;"/></g><text fill="#000000" font-family="sans-serif" font-size="14" lengthAdjust="spacing" textLength="161.0547" x="360.92" y="817.6064">updated_at : DateTime</text><g data-visibility-modifier="IE_MANDATORY"><ellipse cx="351.92" cy="830.5566" fill="#000000" rx="3" ry="3" style="stroke:#000000;stroke-width:1;"/></g><text fill="#000000" font-family="sans-serif" font-size="14" lengthAdjust="spacing" textLength="163.2627" x="360.92" y="833.9032">deleted_at : DateTime?</text></g><!--class DeviceConfiguration--><g class="entity" data-entity="DeviceConfiguration" data-source-line="46" data-uid="ent0006" id="entity_DeviceConfiguration"><rect fill="#F1F1F1" height="145.7813" rx="2.5" ry="2.5" style="stroke:#181818;stroke-width:0.5;" width="189.2627" x="565.92" y="934.5"/><ellipse cx="587.4178" cy="950.5" fill="#ADD1B2" rx="11" ry="11" style="stroke:#181818;stroke-width:1;"/><path d="M591.5271,956.5 L583.8084,956.5 L583.8084,944.1094 L591.5271,944.1094 L591.5271,946.2656 L586.2615,946.2656 L586.2615,948.9375 L591.0271,948.9375 L591.0271,951.0937 L586.2615,951.0937 L586.2615,954.3437 L591.5271,954.3437 L591.5271,956.5 Z " fill="#000000"/><text fill="#000000" font-family="sans-serif" font-size="14" lengthAdjust="spacing" textLength="142.8232" x="602.8617" y="955.3467">DeviceConfiguration</text><line style="stroke:#181818;stroke-width:0.5;" x1="566.92" x2="754.1827" y1="966.5" y2="966.5"/><g data-visibility-modifier="IE_MANDATORY"><ellipse cx="576.92" cy="980.1484" fill="#000000" rx="3" ry="3" style="stroke:#000000;stroke-width:1;"/></g><text fill="#000000" font-family="sans-serif" font-size="14" lengthAdjust="spacing" textLength="111.6377" x="585.92" y="983.4951">config_id : UUID</text><line style="stroke:#181818;stroke-width:1;" x1="566.92" x2="754.1827" y1="990.7969" y2="990.7969"/><g data-visibility-modifier="IE_MANDATORY"><ellipse cx="576.92" cy="1004.4453" fill="#000000" rx="3" ry="3" style="stroke:#000000;stroke-width:1;"/></g><text fill="#000000" font-family="sans-serif" font-size="14" lengthAdjust="spacing" textLength="114.7822" x="585.92" y="1007.792">device_id : UUID</text><g data-visibility-modifier="IE_MANDATORY"><ellipse cx="576.92" cy="1020.7422" fill="#000000" rx="3" ry="3" style="stroke:#000000;stroke-width:1;"/></g><text fill="#000000" font-family="sans-serif" font-size="14" lengthAdjust="spacing" textLength="79.6592" x="585.92" y="1024.0889">data : JSON</text><g data-visibility-modifier="IE_MANDATORY"><ellipse cx="576.92" cy="1037.0391" fill="#000000" rx="3" ry="3" style="stroke:#000000;stroke-width:1;"/></g><text fill="#000000" font-family="sans-serif" font-size="14" lengthAdjust="spacing" textLength="156.4746" x="585.92" y="1040.3857">created_at : DateTime</text><g data-visibility-modifier="IE_MANDATORY"><ellipse cx="576.92" cy="1053.3359" fill="#000000" rx="3" ry="3" style="stroke:#000000;stroke-width:1;"/></g><text fill="#000000" font-family="sans-serif" font-size="14" lengthAdjust="spacing" textLength="161.0547" x="585.92" y="1056.6826">updated_at : DateTime</text><g data-visibility-modifier="IE_MANDATORY"><ellipse cx="576.92" cy="1069.6328" fill="#000000" rx="3" ry="3" style="stroke:#000000;stroke-width:1;"/></g><text fill="#000000" font-family="sans-serif" font-size="14" lengthAdjust="spacing" textLength="163.2627" x="585.92" y="1072.9795">deleted_at : DateTime?</text></g><!--class Scenario--><g class="entity" data-entity="Scenario" data-source-line="56" data-uid="ent0007" id="entity_Scenario"><rect fill="#F1F1F1" height="178.375" rx="2.5" ry="2.5" style="stroke:#181818;stroke-width:0.5;" width="189.2627" x="153.92" y="454.45"/><ellipse cx="213.8712" cy="470.45" fill="#ADD1B2" rx="11" ry="11" style="stroke:#181818;stroke-width:1;"/><path d="M217.9805,476.45 L210.2618,476.45 L210.2618,464.0594 L217.9805,464.0594 L217.9805,466.2156 L212.7149,466.2156 L212.7149,468.8875 L217.4805,468.8875 L217.4805,471.0437 L212.7149,471.0437 L212.7149,474.2937 L217.9805,474.2937 L217.9805,476.45 Z " fill="#000000"/><text fill="#000000" font-family="sans-serif" font-size="14" lengthAdjust="spacing" textLength="60.8604" x="234.3712" y="475.2967">Scenario</text><line style="stroke:#181818;stroke-width:0.5;" x1="154.92" x2="342.1827" y1="486.45" y2="486.45"/><g data-visibility-modifier="IE_MANDATORY"><ellipse cx="164.92" cy="500.0984" fill="#000000" rx="3" ry="3" style="stroke:#000000;stroke-width:1;"/></g><text fill="#000000" font-family="sans-serif" font-size="14" lengthAdjust="spacing" textLength="128.0645" x="173.92" y="503.4451">scenario_id : UUID</text><line style="stroke:#181818;stroke-width:1;" x1="154.92" x2="342.1827" y1="510.7469" y2="510.7469"/><g data-visibility-modifier="IE_MANDATORY"><ellipse cx="164.92" cy="524.3953" fill="#000000" rx="3" ry="3" style="stroke:#000000;stroke-width:1;"/></g><text fill="#000000" font-family="sans-serif" font-size="14" lengthAdjust="spacing" textLength="99.333" x="173.92" y="527.742">user_id : UUID</text><g data-visibility-modifier="IE_MANDATORY"><ellipse cx="164.92" cy="540.6922" fill="#000000" rx="3" ry="3" style="stroke:#000000;stroke-width:1;"/></g><text fill="#000000" font-family="sans-serif" font-size="14" lengthAdjust="spacing" textLength="95.1016" x="173.92" y="544.0389">name : String</text><g data-visibility-modifier="IE_MANDATORY"><ellipse cx="164.92" cy="556.9891" fill="#000000" rx="3" ry="3" style="stroke:#000000;stroke-width:1;"/></g><text fill="#000000" font-family="sans-serif" font-size="14" lengthAdjust="spacing" textLength="133.2393" x="173.92" y="560.3357">description : String</text><g data-visibility-modifier="IE_MANDATORY"><ellipse cx="164.92" cy="573.2859" fill="#000000" rx="3" ry="3" style="stroke:#000000;stroke-width:1;"/></g><text fill="#000000" font-family="sans-serif" font-size="14" lengthAdjust="spacing" textLength="131.0449" x="173.92" y="576.6326">is_active : Boolean</text><g data-visibility-modifier="IE_MANDATORY"><ellipse cx="164.92" cy="589.5828" fill="#000000" rx="3" ry="3" style="stroke:#000000;stroke-width:1;"/></g><text fill="#000000" font-family="sans-serif" font-size="14" lengthAdjust="spacing" textLength="156.4746" x="173.92" y="592.9295">created_at : DateTime</text><g data-visibility-modifier="IE_MANDATORY"><ellipse cx="164.92" cy="605.8797" fill="#000000" rx="3" ry="3" style="stroke:#000000;stroke-width:1;"/></g><text fill="#000000" font-family="sans-serif" font-size="14" lengthAdjust="spacing" textLength="161.0547" x="173.92" y="609.2264">updated_at : DateTime</text><g data-visibility-modifier="IE_MANDATORY"><ellipse cx="164.92" cy="622.1766" fill="#000000" rx="3" ry="3" style="stroke:#000000;stroke-width:1;"/></g><text fill="#000000" font-family="sans-serif" font-size="14" lengthAdjust="spacing" textLength="163.2627" x="173.92" y="625.5232">deleted_at : DateTime?</text></g><!--class ScenarioDevice--><g class="entity" data-entity="ScenarioDevice" data-source-line="68" data-uid="ent0008" id="entity_ScenarioDevice"><rect fill="#F1F1F1" height="178.375" rx="2.5" ry="2.5" style="stroke:#181818;stroke-width:0.5;" width="221.084" x="116.01" y="918.2"/><ellipse cx="167.9324" cy="934.2" fill="#ADD1B2" rx="11" ry="11" style="stroke:#181818;stroke-width:1;"/><path d="M172.0417,940.2 L164.323,940.2 L164.323,927.8094 L172.0417,927.8094 L172.0417,929.9656 L166.7761,929.9656 L166.7761,932.6375 L171.5417,932.6375 L171.5417,934.7937 L166.7761,934.7937 L166.7761,938.0437 L172.0417,938.0437 L172.0417,940.2 Z " fill="#000000"/><text fill="#000000" font-family="sans-serif" font-size="14" lengthAdjust="spacing" textLength="108.7393" x="188.4324" y="939.0467">ScenarioDevice</text><line style="stroke:#181818;stroke-width:0.5;" x1="117.01" x2="336.094" y1="950.2" y2="950.2"/><g data-visibility-modifier="IE_MANDATORY"><ellipse cx="127.01" cy="963.8484" fill="#000000" rx="3" ry="3" style="stroke:#000000;stroke-width:1;"/></g><text fill="#000000" font-family="sans-serif" font-size="14" lengthAdjust="spacing" textLength="61.7969" x="136.01" y="967.1951">id : UUID</text><line style="stroke:#181818;stroke-width:1;" x1="117.01" x2="336.094" y1="974.4969" y2="974.4969"/><g data-visibility-modifier="IE_MANDATORY"><ellipse cx="127.01" cy="988.1453" fill="#000000" rx="3" ry="3" style="stroke:#000000;stroke-width:1;"/></g><text fill="#000000" font-family="sans-serif" font-size="14" lengthAdjust="spacing" textLength="128.0645" x="136.01" y="991.492">scenario_id : UUID</text><g data-visibility-modifier="IE_MANDATORY"><ellipse cx="127.01" cy="1004.4422" fill="#000000" rx="3" ry="3" style="stroke:#000000;stroke-width:1;"/></g><text fill="#000000" font-family="sans-serif" font-size="14" lengthAdjust="spacing" textLength="114.7822" x="136.01" y="1007.7889">device_id : UUID</text><g data-visibility-modifier="IE_MANDATORY"><ellipse cx="127.01" cy="1020.7391" fill="#000000" rx="3" ry="3" style="stroke:#000000;stroke-width:1;"/></g><text fill="#000000" font-family="sans-serif" font-size="14" lengthAdjust="spacing" textLength="195.084" x="136.01" y="1024.0857">role : enum (trigger, action)</text><g data-visibility-modifier="IE_MANDATORY"><ellipse cx="127.01" cy="1037.0359" fill="#000000" rx="3" ry="3" style="stroke:#000000;stroke-width:1;"/></g><text fill="#000000" font-family="sans-serif" font-size="14" lengthAdjust="spacing" textLength="90.9658" x="136.01" y="1040.3826">config : JSON</text><g data-visibility-modifier="IE_MANDATORY"><ellipse cx="127.01" cy="1053.3328" fill="#000000" rx="3" ry="3" style="stroke:#000000;stroke-width:1;"/></g><text fill="#000000" font-family="sans-serif" font-size="14" lengthAdjust="spacing" textLength="156.4746" x="136.01" y="1056.6795">created_at : DateTime</text><g data-visibility-modifier="IE_MANDATORY"><ellipse cx="127.01" cy="1069.6297" fill="#000000" rx="3" ry="3" style="stroke:#000000;stroke-width:1;"/></g><text fill="#000000" font-family="sans-serif" font-size="14" lengthAdjust="spacing" textLength="161.0547" x="136.01" y="1072.9764">updated_at : DateTime</text><g data-visibility-modifier="IE_MANDATORY"><ellipse cx="127.01" cy="1085.9266" fill="#000000" rx="3" ry="3" style="stroke:#000000;stroke-width:1;"/></g><text fill="#000000" font-family="sans-serif" font-size="14" lengthAdjust="spacing" textLength="163.2627" x="136.01" y="1089.2732">deleted_at : DateTime?</text></g><!--class TelemetryEvent--><g class="entity" data-entity="TelemetryEvent" data-source-line="80" data-uid="ent0009" id="entity_TelemetryEvent"><rect fill="#F1F1F1" height="129.4844" rx="2.5" ry="2.5" style="stroke:#181818;stroke-width:0.5;" width="159.5469" x="371.78" y="942.65"/><ellipse cx="393.976" cy="958.65" fill="#ADD1B2" rx="11" ry="11" style="stroke:#181818;stroke-width:1;"/><path d="M398.0854,964.65 L390.3667,964.65 L390.3667,952.2594 L398.0854,952.2594 L398.0854,954.4156 L392.8198,954.4156 L392.8198,957.0875 L397.5854,957.0875 L397.5854,959.2437 L392.8198,959.2437 L392.8198,962.4937 L398.0854,962.4937 L398.0854,964.65 Z " fill="#000000"/><text fill="#000000" font-family="sans-serif" font-size="14" lengthAdjust="spacing" textLength="111.5557" x="409.5752" y="963.4967">TelemetryEvent</text><line style="stroke:#181818;stroke-width:0.5;" x1="372.78" x2="530.3269" y1="974.65" y2="974.65"/><g data-visibility-modifier="IE_MANDATORY"><ellipse cx="382.78" cy="988.2984" fill="#000000" rx="3" ry="3" style="stroke:#000000;stroke-width:1;"/></g><text fill="#000000" font-family="sans-serif" font-size="14" lengthAdjust="spacing" textLength="108.6709" x="391.78" y="991.6451">event_id : UUID</text><line style="stroke:#181818;stroke-width:1;" x1="372.78" x2="530.3269" y1="998.9469" y2="998.9469"/><g data-visibility-modifier="IE_MANDATORY"><ellipse cx="382.78" cy="1012.5953" fill="#000000" rx="3" ry="3" style="stroke:#000000;stroke-width:1;"/></g><text fill="#000000" font-family="sans-serif" font-size="14" lengthAdjust="spacing" textLength="114.7822" x="391.78" y="1015.942">device_id : UUID</text><g data-visibility-modifier="IE_MANDATORY"><ellipse cx="382.78" cy="1028.8922" fill="#000000" rx="3" ry="3" style="stroke:#000000;stroke-width:1;"/></g><text fill="#000000" font-family="sans-serif" font-size="14" lengthAdjust="spacing" textLength="133.5469" x="391.78" y="1032.2389">event_type : String</text><g data-visibility-modifier="IE_MANDATORY"><ellipse cx="382.78" cy="1045.1891" fill="#000000" rx="3" ry="3" style="stroke:#000000;stroke-width:1;"/></g><text fill="#000000" font-family="sans-serif" font-size="14" lengthAdjust="spacing" textLength="79.6592" x="391.78" y="1048.5357">data : JSON</text><g data-visibility-modifier="IE_MANDATORY"><ellipse cx="382.78" cy="1061.4859" fill="#000000" rx="3" ry="3" style="stroke:#000000;stroke-width:1;"/></g><text fill="#000000" font-family="sans-serif" font-size="14" lengthAdjust="spacing" textLength="96.1475" x="391.78" y="1064.8326">dt : DateTime</text></g><!--link User to Session--><g class="link" data-entity-1="User" data-entity-2="Session" data-source-line="90" data-uid="lnk10" id="link_User_Session"><path codeLine="90" d="M200.9385,159.9195 C194.5485,169.8095 192.5,173.15 186.55,182.78 C172.42,205.66 166.5321,215.347 153.3321,238.237" fill="none" id="User-Session" style="stroke:#181818;stroke-width:1;"/><line style="stroke:#181818;stroke-width:1;" x1="199.7495" x2="206.469" y1="154.389" y2="158.7305"/><line style="stroke:#181818;stroke-width:1;" x1="198.1214" x2="204.8409" y1="156.9088" y2="161.2503"/><line style="stroke:#181818;stroke-width:1;" x1="200.9385" x2="205.28" y1="159.9195" y2="153.2"/><line style="stroke:#181818;stroke-width:1;" x1="148.3365" x2="149.5377" y1="246.8998" y2="256.8274"/><line style="stroke:#181818;stroke-width:1;" x1="148.3365" x2="139.1423" y1="246.8998" y2="250.8326"/><line style="stroke:#181818;stroke-width:1;" x1="148.3365" x2="144.34" y1="246.8998" y2="253.83"/><ellipse cx="151.3338" cy="241.7021" fill="none" rx="4" ry="4" style="stroke:#181818;stroke-width:1;"/><text fill="#000000" font-family="sans-serif" font-size="13" lengthAdjust="spacing" textLength="22.9785" x="187.55" y="195.8469">has</text></g><!--link User to Location--><g class="link" data-entity-1="User" data-entity-2="Location" data-source-line="91" data-uid="lnk11" id="link_User_Location"><path codeLine="91" d="M307.2526,159.7526 C323.5126,183.6326 327.2399,189.1011 344.5399,214.5111" fill="none" id="User-Location" style="stroke:#181818;stroke-width:1;"/><line style="stroke:#181818;stroke-width:1;" x1="301.695" x2="308.3076" y1="158.6976" y2="154.195"/><line style="stroke:#181818;stroke-width:1;" x1="303.3834" x2="309.9961" y1="161.1773" y2="156.6748"/><line style="stroke:#181818;stroke-width:1;" x1="307.2526" x2="302.75" y1="159.7526" y2="153.14"/><line style="stroke:#181818;stroke-width:1;" x1="350.1677" x2="359.6296" y1="222.7772" y2="226.0133"/><line style="stroke:#181818;stroke-width:1;" x1="350.1677" x2="349.7104" y1="222.7772" y2="232.7667"/><line style="stroke:#181818;stroke-width:1;" x1="350.1677" x2="354.67" y1="222.7772" y2="229.39"/><ellipse cx="346.7911" cy="217.8175" fill="none" rx="4" ry="4" style="stroke:#181818;stroke-width:1;"/><text fill="#000000" font-family="sans-serif" font-size="13" lengthAdjust="spacing" textLength="33.5981" x="332.55" y="195.8469">owns</text></g><!--link User to Scenario--><g class="link" data-entity-1="User" data-entity-2="Scenario" data-source-line="92" data-uid="lnk12" id="link_User_Scenario"><path codeLine="92" d="M252.6834,161.0395 C251.8034,242.3295 250.6554,348.5211 249.7054,436.0211" fill="none" id="User-Scenario" style="stroke:#181818;stroke-width:1;"/><line style="stroke:#181818;stroke-width:1;" x1="248.7269" x2="256.7265" y1="156.9965" y2="157.0831"/><line style="stroke:#181818;stroke-width:1;" x1="248.6945" x2="256.694" y1="159.9963" y2="160.0829"/><line style="stroke:#181818;stroke-width:1;" x1="252.6834" x2="252.77" y1="161.0395" y2="153.04"/><line style="stroke:#181818;stroke-width:1;" x1="249.5969" x2="255.5096" y1="446.0205" y2="454.0851"/><line style="stroke:#181818;stroke-width:1;" x1="249.5969" x2="243.5104" y1="446.0205" y2="453.9549"/><line style="stroke:#181818;stroke-width:1;" x1="249.5969" x2="249.51" y1="446.0205" y2="454.02"/><ellipse cx="249.662" cy="440.0208" fill="none" rx="4" ry="4" style="stroke:#181818;stroke-width:1;"/><text fill="#000000" font-family="sans-serif" font-size="13" lengthAdjust="spacing" textLength="33.5981" x="252.55" y="195.8469">owns</text></g><!--link Location to Device--><g class="link" data-entity-1="Location" data-entity-2="Device" data-source-line="95" data-uid="lnk13" id="link_Location_Device"><path codeLine="95" d="M424.2638,432.875 C426.8038,504.435 429.3132,575.1413 431.7732,644.6313" fill="none" id="Location-Device" style="stroke:#181818;stroke-width:1;"/><line style="stroke:#181818;stroke-width:1;" x1="420.1244" x2="428.1194" y1="429.0194" y2="428.7356"/><line style="stroke:#181818;stroke-width:1;" x1="420.2308" x2="428.2258" y1="432.0175" y2="431.7337"/><line style="stroke:#181818;stroke-width:1;" x1="424.2638" x2="423.98" y1="432.875" y2="424.88"/><line style="stroke:#181818;stroke-width:1;" x1="432.127" x2="438.4062" y1="654.625" y2="662.4077"/><line style="stroke:#181818;stroke-width:1;" x1="432.127" x2="426.4138" y1="654.625" y2="662.8323"/><line style="stroke:#181818;stroke-width:1;" x1="432.127" x2="432.41" y1="654.625" y2="662.62"/><ellipse cx="431.9147" cy="648.6288" fill="none" rx="4" ry="4" style="stroke:#181818;stroke-width:1;"/><text fill="#000000" font-family="sans-serif" font-size="13" lengthAdjust="spacing" textLength="55.0278" x="431.55" y="548.2069">contains</text></g><!--link Device to DeviceConfiguration--><g class="link" data-entity-1="Device" data-entity-2="DeviceConfiguration" data-source-line="98" data-uid="lnk14" id="link_Device_DeviceConfiguration"><path codeLine="98" d="M519.5528,847.6211 C546.4228,877.8711 565.4984,899.3577 591.0784,928.1677" fill="none" id="Device-DeviceConfiguration" style="stroke:#181818;stroke-width:1;"/><line style="stroke:#181818;stroke-width:1;" x1="513.9058" x2="519.887" y1="847.287" y2="841.9742"/><line style="stroke:#181818;stroke-width:1;" x1="515.8982" x2="521.8793" y1="849.5299" y2="844.2171"/><line style="stroke:#181818;stroke-width:1;" x1="519.5528" x2="514.24" y1="847.6211" y2="841.64"/><line style="stroke:#181818;stroke-width:1;" x1="596.7253" x2="590.7431" y1="928.5031" y2="933.8147"/><line style="stroke:#181818;stroke-width:1;" x1="594.7335" x2="588.7513" y1="926.2597" y2="931.5713"/><line style="stroke:#181818;stroke-width:1;" x1="591.0784" x2="596.39" y1="928.1677" y2="934.15"/><text fill="#000000" font-family="sans-serif" font-size="13" lengthAdjust="spacing" textLength="22.9785" x="555.55" y="884.2669">has</text></g><!--link Device to TelemetryEvent--><g class="link" data-entity-1="Device" data-entity-2="TelemetryEvent" data-source-line="99" data-uid="lnk15" id="link_Device_TelemetryEvent"><path codeLine="99" d="M441.6465,849.6239 C443.7465,882.7239 444.4388,893.7156 446.3588,924.2056" fill="none" id="Device-TelemetryEvent" style="stroke:#181818;stroke-width:1;"/><line style="stroke:#181818;stroke-width:1;" x1="437.4013" x2="445.3852" y1="845.8852" y2="845.3787"/><line style="stroke:#181818;stroke-width:1;" x1="437.5912" x2="445.5752" y1="848.8792" y2="848.3727"/><line style="stroke:#181818;stroke-width:1;" x1="441.6465" x2="441.14" y1="849.6239" y2="841.64"/><line style="stroke:#181818;stroke-width:1;" x1="446.9872" x2="453.4781" y1="934.1858" y2="941.7929"/><line style="stroke:#181818;stroke-width:1;" x1="446.9872" x2="441.5019" y1="934.1858" y2="942.5471"/><line style="stroke:#181818;stroke-width:1;" x1="446.9872" x2="447.49" y1="934.1858" y2="942.17"/><ellipse cx="446.6101" cy="928.1977" fill="none" rx="4" ry="4" style="stroke:#181818;stroke-width:1;"/><text fill="#000000" font-family="sans-serif" font-size="13" lengthAdjust="spacing" textLength="36.1436" x="444.55" y="884.2669">emits</text></g><!--link Device to ScenarioDevice--><g class="link" data-entity-1="Device" data-entity-2="ScenarioDevice" data-source-line="100" data-uid="lnk16" id="link_Device_ScenarioDevice"><path codeLine="100" d="M357.3591,847.8111 C336.9991,872.4911 331.4246,879.255 311.0646,903.935" fill="none" id="Device-ScenarioDevice" style="stroke:#181818;stroke-width:1;"/><line style="stroke:#181818;stroke-width:1;" x1="356.819" x2="362.9901" y1="842.1801" y2="847.271"/><line style="stroke:#181818;stroke-width:1;" x1="354.9099" x2="361.081" y1="844.4943" y2="849.5852"/><line style="stroke:#181818;stroke-width:1;" x1="357.3591" x2="362.45" y1="847.8111" y2="841.64"/><line style="stroke:#181818;stroke-width:1;" x1="304.7009" x2="304.2383" y1="911.6489" y2="921.6382"/><line style="stroke:#181818;stroke-width:1;" x1="304.7009" x2="294.9817" y1="911.6489" y2="914.0018"/><line style="stroke:#181818;stroke-width:1;" x1="304.7009" x2="299.61" y1="911.6489" y2="917.82"/><ellipse cx="308.5191" cy="907.0206" fill="none" rx="4" ry="4" style="stroke:#181818;stroke-width:1;"/><text fill="#000000" font-family="sans-serif" font-size="13" lengthAdjust="spacing" textLength="47.2456" x="337.55" y="884.2669">used in</text></g><!--link Scenario to ScenarioDevice--><g class="link" data-entity-1="Scenario" data-entity-2="ScenarioDevice" data-source-line="103" data-uid="lnk17" id="link_Scenario_ScenarioDevice"><path codeLine="103" d="M243.9492,641.1209 C240.0492,722.9509 235.5265,817.9704 231.6265,899.8404" fill="none" id="Scenario-ScenarioDevice" style="stroke:#181818;stroke-width:1;"/><line style="stroke:#181818;stroke-width:1;" x1="240.1441" x2="248.135" y1="636.935" y2="637.3159"/><line style="stroke:#181818;stroke-width:1;" x1="240.0013" x2="247.9922" y1="639.9316" y2="640.3125"/><line style="stroke:#181818;stroke-width:1;" x1="243.9492" x2="244.33" y1="641.1209" y2="633.13"/><line style="stroke:#181818;stroke-width:1;" x1="231.1507" x2="236.7632" y1="909.8291" y2="918.1055"/><line style="stroke:#181818;stroke-width:1;" x1="231.1507" x2="224.7768" y1="909.8291" y2="917.5345"/><line style="stroke:#181818;stroke-width:1;" x1="231.1507" x2="230.77" y1="909.8291" y2="917.82"/><ellipse cx="231.4362" cy="903.8359" fill="none" rx="4" ry="4" style="stroke:#181818;stroke-width:1;"/><text fill="#000000" font-family="sans-serif" font-size="13" lengthAdjust="spacing" textLength="29.7832" x="243.55" y="756.5869">uses</text></g><!--SRC=[lLN1Rjim3BtxAmHVrXRr3-Im0LjsMB5rXpJdGB0ubvWj6PAIBcW6xBOlAlORwH-DbXKjikMWEQmtyP6KtYCf2QH5ksNvqe3E6JUiMx37ZB4hjgRb2WMRiUNoqvoWed0uD1nhGXTMewmSr79Z7fGMgtjkxcENv0t4IAc1Mn0hRWcVq_8E6-XFR4N2ypFBmDDSW36ef6FgrvwiwQqKtv6EAsRLTv09ijFKu4UB6apiUUTS6ZQqdHYwZcX_LYMt1zu7mnEllVb2vkDo2Z2bnjPj6Jbg9IkqQz75pw74XjSzJkSbu7FRqfzTWpqfVGuRBC49xvTUjd16IdIo8271RjkEECXrSsuz_gV03qf-msgj_xKvWJlfZeb38u5U_aHf7Cmj9-HcyVNsiCs4e5EINYPgKOBa6bL_qRmHw1iFJ0aOZMsgKITQrRcGhbffSTFbl5Ug1YvVJVNHpCPGgC24y8d2JBPKaou_pEo2r5SLw6lMwLRoCfgLrshy7KKqOFNsuuOWLu8O2YM0pZfpXFiSVuNZIHWDjnZ-0M_StvIv3sgtAmhr6Bw06SlfBSyZNtXcoQaUvC0RPZfuQV-GKhprrpSBaC_pSq1Pr1VBqMVwQE_jOdUxv0jmO7eKIRiEIan1qA0TXGs6aSBefWc6qd48aW9xTd4x-yAUV- -Vdd_jd_P_1XjSPY7br04c_mi0]--></g></svg>